<?xml version="1.0" encoding="UTF-8"?>
<svg xmlns="http://www.w3.org/2000/svg" width="24" height="24" viewBox="0 0 24 24" fill="none">
  <path d="M12 20C16.4183 20 20 16.4183 20 12C20 7.58172 16.4183 4 12 4C7.58172 4 4 7.58172 4 12C4 16.4183 7.58172 20 12 20ZM12 22C6.47715 22 2 17.5228 2 12C2 6.47715 6.47715 2 12 2C17.5228 2 22 6.47715 22 12C22 17.5228 17.5228 22 12 22ZM8.89015 13.1708L6.3921 12.3911C5.85219 12.2255 5.84898 11.854 6.51299 11.5871L16.246 7.82754C16.8105 7.59644 17.1315 7.88842 16.9485 8.61641L15.2907 16.4377C15.1753 16.9941 14.8397 17.1266 14.3749 16.8698L11.824 14.9823L10.6351 16.1297C10.5129 16.2476 10.4135 16.3489 10.2263 16.3743C10.039 16.3996 9.88466 16.3442 9.77239 16.0337L8.9028 13.1628L8.89015 13.1708Z" fill="white"></path>
</svg>
