<?xml version="1.0" encoding="UTF-8"?>
<svg xmlns="http://www.w3.org/2000/svg" width="24" height="24" viewBox="0 0 24 24" fill="none">
  <path d="M8.51867 13.8456C7.47864 13.8456 6.62964 12.9011 6.62964 11.7444C6.62964 10.5876 7.45741 9.64307 8.51867 9.64307C9.56928 9.64307 10.4289 10.5876 10.4077 11.7444C10.4077 12.9011 9.56928 13.8456 8.51867 13.8456ZM15.4922 13.8456C14.4521 13.8456 13.6021 12.9011 13.6021 11.7444C13.6021 10.5876 14.4309 9.64307 15.4922 9.64307C16.5428 9.64307 17.4024 10.5876 17.3812 11.7444C17.3812 12.9011 16.5534 13.8456 15.4922 13.8456ZM10.1234 4.32272L9.8146 3.75977L9.18128 3.86532C7.7172 4.10934 6.32463 4.54652 5.02349 5.1458L4.79456 5.25124L4.65312 5.45985C2.03985 9.31417 1.32385 13.1084 1.67837 16.836L1.71702 17.2423L2.04717 17.4822C3.78656 18.7463 5.47222 19.5186 7.12532 20.0254L7.91462 20.2674L9.02818 17.5504C10.9378 18.0224 13.0573 18.0225 14.9671 17.5508L16.0738 20.2681L16.8649 20.0254C18.5154 19.5191 20.2118 18.7469 21.9447 17.4809L22.2707 17.2428L22.3112 16.8412C22.7472 12.521 21.6141 8.75749 19.3528 5.45628L19.2108 5.2492L18.9827 5.1448C17.6748 4.5466 16.2833 4.10957 14.829 3.86549L14.2113 3.76182L13.8968 4.30344C13.8093 4.4542 13.7196 4.6244 13.6345 4.79662C12.5422 4.68445 11.4541 4.68421 10.3707 4.79627C10.2863 4.62711 10.2006 4.46356 10.1234 4.32272ZM6.71241 16.61C6.9104 16.724 7.11778 16.8356 7.32362 16.9378L6.87445 18.0338C5.7539 17.6256 4.61642 17.0635 3.44565 16.2555C3.22118 13.1175 3.85897 9.95075 6.01001 6.68602C6.90767 6.29099 7.85155 5.98255 8.83411 5.77271C8.89436 5.89807 8.9504 6.02042 8.99644 6.12892L9.26933 6.77213L9.96064 6.67074C11.3133 6.47235 12.6753 6.47209 14.0504 6.671L14.7405 6.77082L15.0128 6.12892C15.0602 6.01719 15.1148 5.89523 15.1724 5.77298C16.1506 5.98301 17.0961 6.29188 18.0009 6.68787C19.8762 9.50833 20.8221 12.6541 20.5466 16.255C19.3818 17.0623 18.2403 17.6246 17.1174 18.0333L16.6716 16.9387C16.878 16.8362 17.086 16.7243 17.2846 16.61C17.7744 16.3277 18.302 15.9757 18.6383 15.6395L17.3587 14.36C17.195 14.5237 16.8351 14.7805 16.3812 15.0421C15.9369 15.2981 15.4961 15.5049 15.2145 15.598C13.2107 16.2606 10.7864 16.2606 8.78248 15.598C8.5009 15.5049 8.0601 15.2981 7.61577 15.0421C7.16188 14.7805 6.80197 14.5237 6.63822 14.36L5.3587 15.6395C5.69495 15.9757 6.22255 16.3277 6.71241 16.61Z" fill="white"></path>
</svg>
