<?xml version="1.0" encoding="UTF-8"?>
<svg xmlns="http://www.w3.org/2000/svg" width="220" height="87" viewBox="0 0 220 87" fill="none">
  <path d="M10.7666 44.252C11.179 46.8952 12.0037 49.3562 13.1033 51.6805H20.5711C20.8002 50.9969 21.1667 50.3588 21.7165 49.8575C22.5412 49.0372 23.6866 48.5359 24.9694 48.5359C25.2901 48.5359 25.6109 48.5814 25.9316 48.627L30.1008 41.4264H13.3781C13.1491 42.11 12.7825 42.748 12.2327 43.2493C11.8204 43.6595 11.3164 43.9785 10.7666 44.252ZM29.3219 51.6805H36.0568V41.4264H33.3079L28.314 50.0398C28.7721 50.45 29.1386 51.0424 29.3219 51.6805ZM38.8974 51.6805H45.6323C45.8155 51.0424 46.182 50.4955 46.5944 49.9942L41.6005 41.3808H38.8974V51.6805ZM45.6781 54.4604H38.9432V63.9853C39.6304 64.2132 40.2718 64.5778 40.7758 65.1247L40.8674 65.2158C41.2798 65.626 41.6005 66.1273 41.7838 66.6286C46.1362 65.945 50.1222 64.2588 53.5125 61.7978L51.0843 57.5594C50.7636 57.605 50.4429 57.6506 50.1222 57.6506C48.8393 57.6506 47.6939 57.1493 46.8693 56.329C46.2737 55.7821 45.8613 55.1441 45.6781 54.4604ZM36.0568 54.4604H29.3219C29.0928 55.1441 28.7263 55.7821 28.1765 56.2834C27.3518 57.1037 26.2065 57.605 24.9236 57.605C24.6029 57.605 24.2822 57.5594 23.9615 57.5139L21.5333 61.7522C24.9236 64.2132 28.9096 65.8994 33.2621 66.583C33.4912 66.0361 33.8577 65.5348 34.27 65.0791C34.774 64.5778 35.4154 64.1676 36.1026 63.9397V54.4604H36.0568ZM55.6658 59.9749C55.9407 59.747 56.1698 59.4735 56.4447 59.2457C57.9108 57.8329 59.2395 56.1922 60.339 54.4604H54.4288C54.2456 55.0985 53.879 55.6454 53.4667 56.1467L55.6658 59.9749ZM61.8968 51.6805C62.9963 49.3562 63.821 46.8952 64.2334 44.252C63.6836 44.0241 63.1338 43.6595 62.7214 43.2493L62.6298 43.1582C62.1717 42.6569 61.8051 42.0644 61.576 41.3808H44.8534L49.0226 48.5815C49.3433 48.5359 49.664 48.4903 49.9847 48.4903C51.2676 48.4903 52.413 48.9916 53.2376 49.8119L53.3292 49.9031C53.7874 50.4044 54.1539 50.9969 54.383 51.6805H61.8968ZM67.0739 44.4343C66.0659 50.9969 62.9505 56.8303 58.4606 61.2053C58.0483 61.6155 57.5901 62.0257 57.132 62.4358L59.3311 66.2184C60.1557 65.5348 60.9346 64.8057 61.7135 64.0765L63.7294 66.0817C60.2474 69.5453 56.1698 72.2341 51.6799 74.0571C47.6481 75.6977 43.3414 76.6548 38.9432 76.8371V82.1692L41.7379 79.3892L43.7538 81.3944L38.5309 86.5898C37.9811 87.1367 37.0648 87.1367 36.515 86.5898L31.292 81.3944L33.3079 79.3892L36.1026 82.1692V76.8371C31.7043 76.6548 27.3976 75.6977 23.3659 74.0571C18.9218 72.2341 14.7984 69.4997 11.3164 66.0817L13.3323 64.0765C14.1112 64.8512 14.89 65.5804 15.7147 66.2184L17.9139 62.4358C17.5015 62.0712 17.0892 61.7066 16.7226 61.3421C12.1411 56.9214 8.97982 51.0424 7.97188 44.4343C7.1472 44.252 6.36835 43.7962 5.77274 43.2038L5.68111 43.1126C5.22295 42.6113 4.85643 42.0188 4.62736 41.3352H0V38.5097H4.62736C4.85643 37.8261 5.22296 37.1881 5.77274 36.6867L5.86438 36.5956C6.45998 36.0487 7.1472 35.6385 7.97188 35.4563C9.07146 28.3012 12.6451 22.0576 17.7764 17.5914C22.7703 13.2163 29.1845 10.5275 36.1942 10.2085V4.73965L33.3079 7.61079L31.292 5.60555L36.515 0.410162C37.0648 -0.136721 37.9811 -0.136721 38.5309 0.410162L43.7538 5.60555L41.7379 7.61079L38.8057 4.73965V10.2085C45.8613 10.5275 52.3213 13.2619 57.3152 17.6826C62.4007 22.1943 65.9743 28.3924 67.0739 35.5018C67.8986 35.6841 68.6775 36.1399 69.2273 36.7323C69.7312 37.2336 70.1436 37.8717 70.3726 38.5553H75V41.3808H70.4184C70.1894 42.0644 69.8228 42.7025 69.2731 43.2038C68.6775 43.8418 67.8986 44.252 67.0739 44.4343ZM54.887 64.2132C53.1002 65.4893 51.2217 66.5374 49.16 67.4033L50.672 71.4594C52.9169 70.5479 55.0702 69.363 57.0403 67.9958L54.887 64.2132ZM46.5027 68.3604C45.0366 68.8161 43.5248 69.1807 41.967 69.4086C41.7838 70.2289 41.3256 71.0037 40.73 71.5961C40.226 72.0974 39.5846 72.462 38.8974 72.6899V74.0115C42.0128 73.8748 45.0825 73.3279 47.9688 72.4164L46.5027 68.3604ZM30.5131 38.6008L30.4215 38.5097C28.5889 36.7323 27.4893 34.2258 27.4893 31.4914C27.4893 29.7596 27.9475 28.1189 28.7263 26.7061C27.81 27.2986 26.9395 28.0278 26.1607 28.8025C23.5492 31.4002 21.854 34.8182 21.5333 38.692H30.5131V38.6008ZM18.6927 38.6008C19.0134 34.4992 20.6628 30.7166 23.1827 27.7543L17.3183 21.9665C13.9279 25.7035 11.5455 30.4432 10.7208 35.7297C11.2706 35.9576 11.8204 36.3222 12.2327 36.7323C12.7367 37.2336 13.1491 37.8717 13.3781 38.5553H18.6927V38.6008ZM44.4869 38.6008H53.5125C53.1918 34.7726 51.4508 31.3091 48.8852 28.7114C48.1063 27.9366 47.2358 27.253 46.3195 26.615C47.0984 28.0278 47.5565 29.6684 47.5565 31.4002C47.5565 34.1346 46.4569 36.6412 44.6243 38.4641L44.4869 38.6008ZM56.3072 38.6008H61.6218C61.8509 37.9172 62.2174 37.2792 62.7672 36.7779L62.8589 36.6867C63.2712 36.2766 63.7752 35.9576 64.2792 35.7753C63.4545 30.4887 61.0721 25.7035 57.6359 21.9665L51.8174 27.7999C54.3372 30.7166 55.9865 34.4536 56.3072 38.6008ZM48.4728 51.4982C48.0605 51.9083 47.8314 52.4552 47.8314 53.0932C47.8314 53.7313 48.0605 54.2782 48.4728 54.6883C48.8851 55.0985 49.4349 55.3263 50.0764 55.3263C50.7178 55.3263 51.2676 55.0985 51.6799 54.6883C52.0922 54.2782 52.3213 53.7313 52.3213 53.0932C52.3213 52.5008 52.0922 51.9539 51.7257 51.5437L51.6799 51.4982C51.2676 51.088 50.7178 50.8601 50.0764 50.8601C49.4807 50.8601 48.931 51.088 48.5186 51.4526L48.4728 51.4982ZM20.5711 54.4604H14.6609C15.8063 56.2378 17.135 57.8785 18.6469 59.3368C18.876 59.5647 19.1051 59.747 19.3342 59.9749L21.5333 56.1467C21.0751 55.6454 20.7544 55.0985 20.5711 54.4604ZM23.3659 51.4982C22.9535 51.9083 22.7245 52.4552 22.7245 53.0932C22.7245 53.6857 22.9536 54.2326 23.3201 54.6427L23.3659 54.6883C23.7782 55.0985 24.328 55.3263 24.9694 55.3263C25.6108 55.3263 26.1606 55.0985 26.573 54.6883C26.9853 54.2782 27.2144 53.7313 27.2144 53.0932C27.2144 52.4552 26.9853 51.9083 26.573 51.4982C26.1606 51.088 25.6108 50.8601 24.9694 50.8601C24.328 50.8146 23.7782 51.088 23.3659 51.4982ZM33.033 69.4086C31.4753 69.1807 29.9634 68.8161 28.4973 68.3604L26.9853 72.4164C29.9175 73.3735 32.9414 73.9204 36.0568 74.0115V72.6899C35.3696 72.462 34.7282 72.0974 34.2242 71.5961C33.6286 71.0037 33.2163 70.2745 33.033 69.4086ZM35.9193 66.7653C35.507 67.1755 35.2779 67.7224 35.2779 68.3604C35.2779 68.9984 35.507 69.5453 35.9193 69.9555C36.3317 70.3656 36.8815 70.5935 37.5229 70.5935C38.1643 70.5935 38.7141 70.3656 39.1264 69.9555C39.5388 69.5453 39.7679 68.9984 39.7679 68.3604C39.7679 67.7679 39.5388 67.2211 39.1722 66.8109L39.1264 66.7653C38.7141 66.3552 38.1643 66.1273 37.5229 66.1273C36.8815 66.1273 36.3317 66.3552 35.9193 66.7653ZM7.42212 38.4185C7.00978 38.8287 6.78069 39.3756 6.78069 40.0136C6.78069 40.6061 7.00976 41.153 7.37629 41.5631L7.42212 41.6087C7.83446 42.0189 8.38424 42.2467 9.02566 42.2467C9.66708 42.2467 10.2169 42.0189 10.6292 41.6087C11.0415 41.1985 11.2706 40.6516 11.2706 40.0136C11.2706 39.3756 11.0415 38.8287 10.6292 38.4185C10.2169 38.0084 9.66708 37.7805 9.02566 37.7805C8.43006 37.7805 7.88026 38.0084 7.46792 38.373L7.42212 38.4185ZM62.9963 20.5993V14.6291H56.9945V11.8036H64.4166C65.1955 11.8036 65.8369 12.4416 65.8369 13.2163V20.5993H62.9963ZM18.0055 14.6291H12.0037V20.5993H9.1631V13.2163C9.1631 12.4416 9.80451 11.8036 10.5834 11.8036H18.0055V14.6291ZM17.9139 67.9502C19.9298 69.3174 22.0372 70.5023 24.2822 71.4138L25.7941 67.3578C23.7782 66.4919 21.854 65.4437 20.0672 64.1676L17.9139 67.9502ZM32.4374 26.3871C31.1545 27.6632 30.3299 29.4861 30.3299 31.4458C30.3299 33.4054 31.1545 35.1828 32.4374 36.5045C33.7202 37.7805 35.507 38.6008 37.5229 38.6008C39.493 38.6008 41.234 37.8261 42.5168 36.5956L42.5626 36.5045C43.8454 35.2284 44.6701 33.4054 44.6701 31.4458C44.6701 29.4861 43.8454 27.7087 42.5626 26.3871C41.2798 25.1111 39.4472 24.2907 37.4771 24.2907C35.507 24.2907 33.7202 25.1111 32.4374 26.3871ZM64.4166 38.4185C64.0043 38.8287 63.7752 39.3756 63.7752 40.0136C63.7752 40.6061 64.0042 41.153 64.3708 41.5631L64.4166 41.6087C64.829 42.0189 65.3788 42.2467 66.0202 42.2467C66.6616 42.2467 67.2114 42.0189 67.6237 41.6087C68.0361 41.1985 68.2651 40.6516 68.2651 40.0136C68.2651 39.3756 68.0361 38.8287 67.6237 38.4185C67.2114 38.0084 66.6616 37.7805 66.0202 37.7805C65.4246 37.7805 64.8748 38.0084 64.4624 38.373L64.4166 38.4185ZM49.8015 25.7491L55.62 19.9157L55.4826 19.7789C50.9927 15.814 45.1741 13.3531 38.8515 13.034V21.2373C43.0208 21.5563 46.8235 23.197 49.8015 25.7491ZM19.3342 20.0068L25.1985 25.7947C28.1765 23.2425 31.9792 21.6019 36.1942 21.2829V13.0796C29.9175 13.3986 24.0989 15.8596 19.6548 19.7789L19.3342 20.0068Z" fill="white"></path>
  <path d="M107.56 44.408C107.56 45.736 107.408 46.944 107.104 48.032C106.816 49.104 106.368 50.032 105.76 50.816C105.168 51.6 104.416 52.192 103.504 52.592L107.368 57.08H103.192L100.24 53.24C100.192 53.24 100.136 53.24 100.072 53.24C100.024 53.24 99.976 53.24 99.928 53.24C98.616 53.24 97.48 53.032 96.52 52.616C95.56 52.184 94.768 51.584 94.144 50.816C93.52 50.032 93.048 49.096 92.728 48.008C92.424 46.92 92.272 45.712 92.272 44.384C92.272 42.608 92.544 41.064 93.088 39.752C93.648 38.44 94.496 37.424 95.632 36.704C96.768 35.968 98.208 35.6 99.952 35.6C101.68 35.6 103.104 35.968 104.224 36.704C105.344 37.424 106.176 38.448 106.72 39.776C107.28 41.088 107.56 42.632 107.56 44.408ZM95.68 44.408C95.68 45.704 95.824 46.816 96.112 47.744C96.4 48.672 96.856 49.384 97.48 49.88C98.12 50.376 98.936 50.624 99.928 50.624C100.92 50.624 101.728 50.376 102.352 49.88C102.976 49.384 103.432 48.672 103.72 47.744C104.008 46.816 104.152 45.704 104.152 44.408C104.152 42.472 103.816 40.952 103.144 39.848C102.488 38.744 101.416 38.192 99.928 38.192C98.936 38.192 98.12 38.44 97.48 38.936C96.856 39.432 96.4 40.144 96.112 41.072C95.824 42 95.68 43.112 95.68 44.408ZM121.7 39.992V53H119.252L118.844 51.32H118.676C118.42 51.768 118.092 52.136 117.692 52.424C117.292 52.696 116.852 52.896 116.372 53.024C115.892 53.168 115.396 53.24 114.884 53.24C113.988 53.24 113.212 53.072 112.556 52.736C111.9 52.4 111.388 51.888 111.02 51.2C110.668 50.496 110.492 49.592 110.492 48.488V39.992H113.684V47.888C113.684 48.848 113.844 49.576 114.164 50.072C114.5 50.552 115.028 50.792 115.748 50.792C116.468 50.792 117.028 50.624 117.428 50.288C117.844 49.936 118.132 49.432 118.292 48.776C118.452 48.12 118.532 47.312 118.532 46.352V39.992H121.7ZM130.301 39.752C131.421 39.752 132.381 39.992 133.181 40.472C133.997 40.936 134.629 41.608 135.077 42.488C135.525 43.352 135.749 44.408 135.749 45.656V47.192H127.781C127.813 48.376 128.101 49.296 128.645 49.952C129.205 50.592 129.989 50.912 130.997 50.912C131.797 50.912 132.509 50.832 133.133 50.672C133.757 50.496 134.405 50.248 135.077 49.928V52.352C134.469 52.656 133.837 52.88 133.181 53.024C132.525 53.168 131.717 53.24 130.757 53.24C129.541 53.24 128.461 53 127.517 52.52C126.589 52.024 125.861 51.28 125.333 50.288C124.805 49.296 124.541 48.064 124.541 46.592C124.541 45.104 124.781 43.856 125.261 42.848C125.741 41.824 126.413 41.056 127.277 40.544C128.157 40.016 129.165 39.752 130.301 39.752ZM130.349 41.984C129.629 41.984 129.045 42.248 128.597 42.776C128.165 43.288 127.909 44.056 127.829 45.08H132.725C132.725 44.472 132.637 43.936 132.461 43.472C132.285 43.008 132.021 42.648 131.669 42.392C131.333 42.12 130.893 41.984 130.349 41.984ZM147.046 49.232C147.046 50.096 146.854 50.832 146.47 51.44C146.086 52.032 145.518 52.48 144.766 52.784C144.014 53.088 143.07 53.24 141.934 53.24C141.07 53.24 140.318 53.176 139.678 53.048C139.038 52.92 138.422 52.72 137.83 52.448V49.88C138.47 50.184 139.158 50.44 139.894 50.648C140.646 50.856 141.326 50.96 141.934 50.96C142.654 50.96 143.174 50.832 143.494 50.576C143.814 50.32 143.974 49.976 143.974 49.544C143.974 49.288 143.902 49.056 143.758 48.848C143.63 48.64 143.358 48.424 142.942 48.2C142.542 47.96 141.958 47.664 141.19 47.312C140.438 46.976 139.814 46.64 139.318 46.304C138.822 45.968 138.446 45.568 138.19 45.104C137.934 44.624 137.806 44.024 137.806 43.304C137.806 42.136 138.246 41.256 139.126 40.664C140.022 40.056 141.19 39.752 142.63 39.752C143.414 39.752 144.142 39.832 144.814 39.992C145.502 40.136 146.19 40.376 146.878 40.712L145.942 42.944C145.558 42.768 145.166 42.616 144.766 42.488C144.382 42.344 144.006 42.232 143.638 42.152C143.286 42.072 142.934 42.032 142.582 42.032C142.022 42.032 141.598 42.136 141.31 42.344C141.022 42.536 140.878 42.816 140.878 43.184C140.878 43.44 140.95 43.672 141.094 43.88C141.238 44.072 141.51 44.272 141.91 44.48C142.31 44.688 142.878 44.952 143.614 45.272C144.35 45.56 144.974 45.872 145.486 46.208C145.998 46.528 146.382 46.928 146.638 47.408C146.91 47.888 147.046 48.496 147.046 49.232ZM154.793 50.816C155.145 50.816 155.481 50.784 155.801 50.72C156.137 50.64 156.449 50.552 156.737 50.456V52.712C156.401 52.856 155.993 52.976 155.513 53.072C155.033 53.184 154.497 53.24 153.905 53.24C153.169 53.24 152.513 53.12 151.937 52.88C151.361 52.624 150.905 52.192 150.569 51.584C150.249 50.976 150.089 50.128 150.089 49.04V42.272H148.457V40.952L150.281 39.896L151.241 37.136H153.257V39.992H156.617V42.272H153.257V49.016C153.257 49.624 153.393 50.08 153.665 50.384C153.953 50.672 154.329 50.816 154.793 50.816ZM175.186 53L173.866 48.464H168.01L166.69 53H163.234L168.994 35.792H172.858L178.642 53H175.186ZM171.73 41.408C171.666 41.152 171.578 40.848 171.466 40.496C171.37 40.128 171.274 39.752 171.178 39.368C171.098 38.984 171.018 38.624 170.938 38.288C170.874 38.672 170.794 39.056 170.698 39.44C170.602 39.808 170.506 40.16 170.41 40.496C170.33 40.832 170.25 41.136 170.17 41.408L168.826 45.824H173.098L171.73 41.408ZM185.449 50.816C185.801 50.816 186.137 50.784 186.457 50.72C186.793 50.64 187.105 50.552 187.393 50.456V52.712C187.057 52.856 186.649 52.976 186.169 53.072C185.689 53.184 185.153 53.24 184.561 53.24C183.825 53.24 183.169 53.12 182.593 52.88C182.017 52.624 181.561 52.192 181.225 51.584C180.905 50.976 180.745 50.128 180.745 49.04V42.272H179.113V40.952L180.937 39.896L181.897 37.136H183.913V39.992H187.273V42.272H183.913V49.016C183.913 49.624 184.049 50.08 184.321 50.384C184.609 50.672 184.985 50.816 185.449 50.816ZM192.951 53H189.759V34.76H192.951V53ZM201.624 39.752C203.192 39.752 204.392 40.12 205.224 40.856C206.056 41.576 206.472 42.712 206.472 44.264V53H204.24L203.616 51.2H203.52C203.168 51.664 202.808 52.056 202.44 52.376C202.072 52.68 201.648 52.896 201.168 53.024C200.688 53.168 200.112 53.24 199.44 53.24C198.72 53.24 198.072 53.096 197.496 52.808C196.92 52.52 196.464 52.08 196.128 51.488C195.792 50.88 195.624 50.12 195.624 49.208C195.624 47.864 196.088 46.856 197.016 46.184C197.944 45.496 199.336 45.12 201.192 45.056L203.28 44.984V44.336C203.28 43.504 203.104 42.912 202.752 42.56C202.4 42.208 201.92 42.032 201.312 42.032C200.736 42.032 200.152 42.128 199.56 42.32C198.984 42.512 198.416 42.736 197.855 42.992L196.872 40.88C197.528 40.544 198.256 40.272 199.056 40.064C199.856 39.856 200.712 39.752 201.624 39.752ZM201.936 46.904C200.8 46.952 200.008 47.184 199.56 47.6C199.112 48 198.888 48.544 198.888 49.232C198.888 49.84 199.04 50.28 199.344 50.552C199.664 50.824 200.08 50.96 200.592 50.96C201.344 50.96 201.984 50.712 202.512 50.216C203.04 49.704 203.304 48.952 203.304 47.96V46.856L201.936 46.904ZM218.413 49.232C218.413 50.096 218.221 50.832 217.837 51.44C217.453 52.032 216.885 52.48 216.133 52.784C215.381 53.088 214.437 53.24 213.301 53.24C212.437 53.24 211.685 53.176 211.045 53.048C210.405 52.92 209.789 52.72 209.197 52.448V49.88C209.837 50.184 210.525 50.44 211.261 50.648C212.013 50.856 212.693 50.96 213.301 50.96C214.021 50.96 214.541 50.832 214.861 50.576C215.181 50.32 215.341 49.976 215.341 49.544C215.341 49.288 215.269 49.056 215.125 48.848C214.997 48.64 214.725 48.424 214.309 48.2C213.909 47.96 213.325 47.664 212.557 47.312C211.805 46.976 211.181 46.64 210.685 46.304C210.189 45.968 209.813 45.568 209.557 45.104C209.301 44.624 209.173 44.024 209.173 43.304C209.173 42.136 209.613 41.256 210.493 40.664C211.389 40.056 212.557 39.752 213.997 39.752C214.781 39.752 215.509 39.832 216.181 39.992C216.869 40.136 217.557 40.376 218.245 40.712L217.309 42.944C216.925 42.768 216.533 42.616 216.133 42.488C215.749 42.344 215.373 42.232 215.005 42.152C214.653 42.072 214.301 42.032 213.949 42.032C213.389 42.032 212.965 42.136 212.677 42.344C212.389 42.536 212.245 42.816 212.245 43.184C212.245 43.44 212.317 43.672 212.461 43.88C212.605 44.072 212.877 44.272 213.277 44.48C213.677 44.688 214.245 44.952 214.981 45.272C215.717 45.56 216.341 45.872 216.853 46.208C217.365 46.528 217.749 46.928 218.005 47.408C218.277 47.888 218.413 48.496 218.413 49.232Z" fill="white"></path>
</svg>
